<mxfile host="app.diagrams.net" modified="2024-07-05T15:24:43.952Z" agent="Mozilla/5.0 (Windows NT 10.0; Win64; x64) AppleWebKit/537.36 (KHTML, like Gecko) Chrome/126.0.0.0 Safari/537.36" version="24.5.4" etag="K6S9JxzKfbw00r2QMdGB" type="github">
  <diagram name="PÃ¡gina-1" id="LgGR2kzd3zjL8PJ1XlUX">
    <mxGraphModel>
      <root>
        <mxCell id="0" />
        <mxCell id="1" parent="0" />
      </root>
    </mxGraphModel>
  </diagram>
</mxfile>
